HIERARCHY
ROOT Hips
{
	OFFSET 0.000000 100.481300 0.000000
	CHANNELS 6 Xposition Yposition Zposition Xrotation Yrotation Zrotation
	JOINT Spine
	{
		OFFSET -0.279200 12.230698 -2.892100
		CHANNELS 3 Xrotation Yrotation Zrotation
		JOINT Spine1
		{
			OFFSET -0.325700 14.269203 -3.374200
			CHANNELS 3 Xrotation Yrotation Zrotation
			JOINT Spine2
			{
				OFFSET -0.372300 16.307602 -0.352600
				CHANNELS 3 Xrotation Yrotation Zrotation
				JOINT Neck
				{
					OFFSET -0.418800 17.814194 8.416900
					CHANNELS 3 Xrotation Yrotation Zrotation
					JOINT Head
					{
						OFFSET 0.000000 7.031097 3.806800
						CHANNELS 3 Xrotation Yrotation Zrotation
						JOINT HeadTop_End
						{
							OFFSET 0.000000 24.646606 12.978600
							CHANNELS 3 Xrotation Yrotation Zrotation
							End Site
							{
								OFFSET 0.000000 27.854965 0.000000
							}
						}
					}
				}
				JOINT LeftShoulder
				{
					OFFSET 16.952999 14.495407 -7.737500
					CHANNELS 3 Xrotation Yrotation Zrotation
					JOINT LeftArm
					{
						OFFSET 9.308998 -2.777710 0.208600
						CHANNELS 3 Xrotation Yrotation Zrotation
						JOINT LeftForeArm
						{
							OFFSET 29.972298 0.000000 0.000000
							CHANNELS 3 Xrotation Yrotation Zrotation
							JOINT LeftHand
							{
								OFFSET 26.026505 0.000000 0.000000
								CHANNELS 3 Xrotation Yrotation Zrotation
								JOINT LeftHandThumb1
								{
									OFFSET 12.240501 -7.147949 9.207150
									CHANNELS 3 Xrotation Yrotation Zrotation
									JOINT LeftHandThumb2
									{
										OFFSET 4.138618 -2.389435 2.389433
										CHANNELS 3 Xrotation Yrotation Zrotation
										JOINT LeftHandThumb3
										{
											OFFSET 2.726913 -1.574387 1.574386
											CHANNELS 3 Xrotation Yrotation Zrotation
											JOINT LeftHandThumb4
											{
												OFFSET 3.941010 -2.275345 2.275342
												CHANNELS 3 Xrotation Yrotation Zrotation
												End Site
												{
													OFFSET -0.005798 5.087799 0.009903
												}
											}
										}
									}
								}
								JOINT LeftHandIndex1
								{
									OFFSET 24.424698 -1.985611 5.953459
									CHANNELS 3 Xrotation Yrotation Zrotation
									JOINT LeftHandIndex2
									{
										OFFSET 6.426697 0.000000 0.000000
										CHANNELS 3 Xrotation Yrotation Zrotation
										JOINT LeftHandIndex3
										{
											OFFSET 5.337898 0.000000 0.000000
											CHANNELS 3 Xrotation Yrotation Zrotation
											JOINT LeftHandIndex4
											{
												OFFSET 4.409401 0.000000 0.000000
												CHANNELS 3 Xrotation Yrotation Zrotation
												End Site
												{
													OFFSET 0.000000 4.409363 0.014373
												}
											}
										}
									}
								}
								JOINT LeftHandMiddle1
								{
									OFFSET 23.810104 0.000000 0.000000
									CHANNELS 3 Xrotation Yrotation Zrotation
									JOINT LeftHandMiddle2
									{
										OFFSET 7.176498 0.000000 0.000000
										CHANNELS 3 Xrotation Yrotation Zrotation
										JOINT LeftHandMiddle3
										{
											OFFSET 6.774902 0.000000 0.000000
											CHANNELS 3 Xrotation Yrotation Zrotation
											JOINT LeftHandMiddle4
											{
												OFFSET 5.403328 0.000000 0.000000
												CHANNELS 3 Xrotation Yrotation Zrotation
												End Site
												{
													OFFSET -0.027702 5.403244 0.017414
												}
											}
										}
									}
								}
								JOINT LeftHandRing1
								{
									OFFSET 22.908401 -0.839279 -6.020567
									CHANNELS 3 Xrotation Yrotation Zrotation
									JOINT LeftHandRing2
									{
										OFFSET 6.337502 0.000000 0.000000
										CHANNELS 3 Xrotation Yrotation Zrotation
										JOINT LeftHandRing3
										{
											OFFSET 5.779297 0.000000 0.000000
											CHANNELS 3 Xrotation Yrotation Zrotation
											JOINT LeftHandRing4
											{
												OFFSET 4.965698 0.000000 0.000000
												CHANNELS 3 Xrotation Yrotation Zrotation
												End Site
												{
													OFFSET 0.000000 4.965668 0.016186
												}
											}
										}
									}
								}
								JOINT LeftHandPinky1
								{
									OFFSET 20.037003 -1.530319 -10.950146
									CHANNELS 3 Xrotation Yrotation Zrotation
									JOINT LeftHandPinky2
									{
										OFFSET 5.254700 0.000000 0.000000
										CHANNELS 3 Xrotation Yrotation Zrotation
										JOINT LeftHandPinky3
										{
											OFFSET 4.810204 0.000000 0.000000
											CHANNELS 3 Xrotation Yrotation Zrotation
											JOINT LeftHandPinky4
											{
												OFFSET 3.647202 0.000000 0.000000
												CHANNELS 3 Xrotation Yrotation Zrotation
												End Site
												{
													OFFSET 0.000000 3.647186 0.011889
												}
											}
										}
									}
								}
							}
						}
					}
				}
				JOINT RightShoulder
				{
					OFFSET -15.141001 14.495407 -7.737500
					CHANNELS 3 Xrotation Yrotation Zrotation
					JOINT RightArm
					{
						OFFSET -9.308998 -2.777710 0.208500
						CHANNELS 3 Xrotation Yrotation Zrotation
						JOINT RightForeArm
						{
							OFFSET -29.972300 0.000000 0.000000
							CHANNELS 3 Xrotation Yrotation Zrotation
							JOINT RightHand
							{
								OFFSET -26.026505 0.000000 0.000000
								CHANNELS 3 Xrotation Yrotation Zrotation
								JOINT RightHandThumb1
								{
									OFFSET -12.240601 -7.148026 9.207092
									CHANNELS 3 Xrotation Yrotation Zrotation
									JOINT RightHandThumb2
									{
										OFFSET -4.138618 -2.389435 2.389433
										CHANNELS 3 Xrotation Yrotation Zrotation
										JOINT RightHandThumb3
										{
											OFFSET -2.726974 -1.574417 1.574421
											CHANNELS 3 Xrotation Yrotation Zrotation
											JOINT RightHandThumb4
											{
												OFFSET -3.941010 -2.275345 2.275343
												CHANNELS 3 Xrotation Yrotation Zrotation
												End Site
												{
													OFFSET 0.005814 5.087799 0.009927
												}
											}
										}
									}
								}
								JOINT RightHandIndex1
								{
									OFFSET -24.424698 -1.985657 5.953444
									CHANNELS 3 Xrotation Yrotation Zrotation
									JOINT RightHandIndex2
									{
										OFFSET -6.426697 0.000000 0.000000
										CHANNELS 3 Xrotation Yrotation Zrotation
										JOINT RightHandIndex3
										{
											OFFSET -5.337898 0.000000 0.000000
											CHANNELS 3 Xrotation Yrotation Zrotation
											JOINT RightHandIndex4
											{
												OFFSET -4.409401 0.000000 0.000000
												CHANNELS 3 Xrotation Yrotation Zrotation
												End Site
												{
													OFFSET 0.000000 4.409363 0.014408
												}
											}
										}
									}
								}
								JOINT RightHandMiddle1
								{
									OFFSET -23.810097 0.000000 0.000000
									CHANNELS 3 Xrotation Yrotation Zrotation
									JOINT RightHandMiddle2
									{
										OFFSET -7.176498 0.000000 0.000000
										CHANNELS 3 Xrotation Yrotation Zrotation
										JOINT RightHandMiddle3
										{
											OFFSET -6.774902 0.000000 0.000000
											CHANNELS 3 Xrotation Yrotation Zrotation
											JOINT RightHandMiddle4
											{
												OFFSET -5.403328 0.000000 0.000000
												CHANNELS 3 Xrotation Yrotation Zrotation
												End Site
												{
													OFFSET 0.027702 5.403244 0.017457
												}
											}
										}
									}
								}
								JOINT RightHandRing1
								{
									OFFSET -22.908302 -0.839325 -6.020576
									CHANNELS 3 Xrotation Yrotation Zrotation
									JOINT RightHandRing2
									{
										OFFSET -6.337502 0.000000 0.000000
										CHANNELS 3 Xrotation Yrotation Zrotation
										JOINT RightHandRing3
										{
											OFFSET -5.779297 0.000000 0.000000
											CHANNELS 3 Xrotation Yrotation Zrotation
											JOINT RightHandRing4
											{
												OFFSET -4.965698 0.000000 0.000000
												CHANNELS 3 Xrotation Yrotation Zrotation
												End Site
												{
													OFFSET 0.000000 4.965668 0.016226
												}
											}
										}
									}
								}
								JOINT RightHandPinky1
								{
									OFFSET -20.037003 -1.530334 -10.950259
									CHANNELS 3 Xrotation Yrotation Zrotation
									JOINT RightHandPinky2
									{
										OFFSET -5.254700 0.000000 0.000000
										CHANNELS 3 Xrotation Yrotation Zrotation
										JOINT RightHandPinky3
										{
											OFFSET -4.810204 0.000000 0.000000
											CHANNELS 3 Xrotation Yrotation Zrotation
											JOINT RightHandPinky4
											{
												OFFSET -3.647202 0.000000 0.000000
												CHANNELS 3 Xrotation Yrotation Zrotation
												End Site
												{
													OFFSET 0.000000 3.647186 0.011917
												}
											}
										}
									}
								}
							}
						}
					}
				}
			}
		}
	}
	JOINT LeftUpLeg
	{
		OFFSET 15.427100 -6.655098 0.678600
		CHANNELS 3 Xrotation Yrotation Zrotation
		JOINT LeftLeg
		{
			OFFSET 4.081073 -39.591068 13.024000
			CHANNELS 3 Xrotation Yrotation Zrotation
			JOINT LeftFoot
			{
				OFFSET -4.081074 -37.707932 -15.979700
				CHANNELS 3 Xrotation Yrotation Zrotation
				JOINT LeftToeBase
				{
					OFFSET 5.346399 -15.068900 20.645000
					CHANNELS 3 Xrotation Yrotation Zrotation
					JOINT LeftToe_End
					{
						OFFSET 2.754700 0.931300 11.300900
						CHANNELS 3 Xrotation Yrotation Zrotation
						End Site
						{
							OFFSET 0.000000 11.669021 0.000000
						}
					}
				}
			}
		}
	}
	JOINT RightUpLeg
	{
		OFFSET -15.569500 -6.655098 0.678600
		CHANNELS 3 Xrotation Yrotation Zrotation
		JOINT RightLeg
		{
			OFFSET -4.081825 -39.591045 13.023800
			CHANNELS 3 Xrotation Yrotation Zrotation
			JOINT RightFoot
			{
				OFFSET 4.081824 -37.707954 -15.979600
				CHANNELS 3 Xrotation Yrotation Zrotation
				JOINT RightToeBase
				{
					OFFSET -5.346400 -15.068900 20.645000
					CHANNELS 3 Xrotation Yrotation Zrotation
					JOINT RightToe_End
					{
						OFFSET -2.754700 0.931300 11.300900
						CHANNELS 3 Xrotation Yrotation Zrotation
						End Site
						{
							OFFSET 0.000000 11.669021 0.000000
						}
					}
				}
			}
		}
	}
}
MOTION
Frames: 4
Frame Time: 0.033333
2.195201 72.839012 -1.714662 -5.400175 -46.432097 -0.526755 9.420045 7.435534 -1.366603 2.187715 0.989901 -0.915631 2.202828 0.982774 -0.894152 0.084667 13.220573 4.538641 8.920895 20.138135 -4.130196 0.000002 0.000000 0.000000 1.117176 3.546350 -8.633308 -53.487003 4.935507 -51.503007 0.000058 -106.358114 0.000057 1.988597 -7.706136 -15.869214 -6.141225 -11.690800 -6.761693 9.914100 42.595519 3.409881 -0.422812 8.108101 27.509111 -0.000001 0.000003 -0.000003 0.256750 3.379616 -45.814269 5.654096 5.847752 -88.067455 2.162136 4.544814 -50.866365 -0.000000 -0.000002 0.000001 -0.461469 3.841593 -39.722683 6.450754 5.820353 -95.892864 2.182889 4.561573 -51.127733 0.000000 -0.000001 0.000002 0.469724 4.966830 -39.799441 8.181044 5.368602 -113.503025 3.200487 5.218117 -63.022982 0.000000 0.000000 0.000000 -3.762436 9.063692 -45.253818 5.342548 5.829006 -85.005324 8.716833 5.103328 -119.369181 0.000001 -0.000000 -0.000002 3.036128 13.027202 -5.371408 -48.713708 27.172839 83.457043 -0.000043 105.988314 0.000018 -8.345378 17.548107 8.775680 -7.341110 13.749650 7.412336 9.855791 -44.489089 -3.903267 -0.115787 -14.513090 -28.973864 0.000001 0.000000 -0.000000 -0.124377 -2.384786 45.108851 4.500582 -4.654542 88.071150 1.723230 -3.618371 50.920109 -0.000001 -0.000001 -0.000002 -0.761626 -2.932905 39.031048 5.133887 -4.632764 95.881635 1.739741 -3.631704 51.181353 0.000001 0.000000 0.000004 0.154760 -4.068814 39.122661 6.509732 -4.273594 113.462891 2.549583 -4.153926 63.067337 -0.000002 -0.000000 0.000000 -4.198880 -8.025513 44.637772 4.252915 -4.639634 85.014859 6.935964 -4.062620 119.322312 0.000001 0.000000 -0.000000 -34.255840 5.085660 20.300909 56.771726 -7.634738 3.673725 -20.131855 -7.078257 -17.223691 -1.594042 0.000000 -0.000005 -0.000000 -0.000000 -0.000000 -19.408645 -8.980164 -34.667581 57.008109 -2.876353 -4.766590 -26.306711 -10.338561 26.246228 -0.013265 -0.000054 -0.000008 -0.000000 0.000000 0.000000 
2.259084 72.712402 -2.074061 -5.445531 -47.260282 -0.442793 9.761188 6.931923 -0.947660 2.124906 0.912582 -1.103988 2.138634 0.894243 -1.082288 0.420036 13.440843 4.385684 8.947690 21.169364 -5.190398 -0.000000 0.000000 0.000001 1.376230 2.952386 -8.749149 -53.361840 4.732557 -50.738754 0.000204 -106.825812 0.000214 0.455198 -7.590959 -16.170949 -6.155976 -11.355871 -6.106677 10.139726 42.175520 2.591035 -0.104601 9.440148 27.095891 -0.000001 -0.000000 -0.000001 0.247506 3.552824 -47.181222 5.664936 5.848106 -88.173835 2.159740 4.542857 -50.836009 0.000001 0.000000 -0.000002 -0.395158 4.027915 -41.098187 6.421903 5.823248 -95.608435 2.195479 4.571659 -51.285869 -0.000001 -0.000001 -0.000002 0.547493 5.118256 -41.328727 8.118388 5.395309 -112.835053 3.184116 5.209783 -62.842795 0.000000 0.000001 -0.000000 -3.372278 9.221207 -46.732793 5.364641 5.830885 -85.222955 8.478012 5.230029 -116.717633 0.000001 -0.000000 -0.000002 3.029644 13.196865 -5.748958 -48.527934 27.339465 83.651226 0.000023 106.211812 -0.000025 -8.271736 17.487929 8.294588 -7.114348 13.526912 7.157985 10.108411 -44.219608 -3.594497 -0.061566 -15.183464 -28.703774 0.000000 -0.000001 0.000001 -0.099635 -2.564999 46.252849 4.527650 -4.655372 88.404648 1.774867 -3.659625 51.733707 -0.000001 -0.000000 -0.000003 -0.686644 -3.128250 40.352703 5.153302 -4.630720 96.122044 1.783010 -3.666022 51.861244 -0.000000 0.000001 -0.000000 0.231715 -4.213350 40.434115 6.485539 -4.283986 113.138628 2.577258 -4.167831 63.448742 0.000000 -0.000001 -0.000000 -3.851691 -8.133596 45.817442 4.288950 -4.642635 85.460194 6.815392 -4.127865 117.633985 -0.000004 0.000000 -0.000000 -33.969550 4.880137 20.640188 57.070236 -6.855486 3.541013 -20.246269 -6.587603 -17.314311 -1.914540 -0.000008 -0.000003 -0.000000 0.000000 -0.000000 -20.299846 -8.209153 -34.615679 57.671624 -2.527154 -4.633789 -26.355726 -10.110187 25.653379 -0.132183 -0.000021 0.000003 0.000000 0.000000 -0.000000 
2.473199 72.546127 -2.347312 -5.434725 -47.934811 -0.292464 10.272339 6.436961 -0.428222 2.021267 0.844593 -1.212647 2.032099 0.818448 -1.190136 0.755369 13.641419 4.126615 9.060391 22.141595 -6.535123 0.000000 0.000000 0.000000 1.455144 2.360226 -8.267667 -52.142426 4.972020 -51.211058 -0.000108 -107.704078 -0.000089 -0.610964 -7.639279 -15.888656 -6.169505 -11.000315 -5.409491 10.375350 41.721046 1.728467 0.228943 10.855027 26.650814 0.000004 0.000003 -0.000002 0.243918 3.736943 -48.632067 5.676425 5.848463 -88.286650 2.157184 4.540790 -50.803791 -0.000001 0.000000 -0.000001 -0.318549 4.223517 -42.558048 6.391395 5.826147 -95.307900 2.208899 4.582345 -51.454035 0.000000 0.000002 0.000002 0.635035 5.276825 -42.952095 8.051664 5.422801 -112.127186 3.166793 5.200901 -62.651905 0.000000 -0.000000 -0.000001 -2.956406 9.371577 -48.305379 5.388110 5.832786 -85.453945 8.218365 5.352297 -113.902632 -0.000000 0.000000 0.000001 3.026003 13.501292 -5.714573 -48.134945 27.613068 83.144289 0.000087 106.561285 -0.000082 -8.073628 17.324705 7.604385 -6.877791 13.294914 6.892264 10.378590 -43.941435 -3.272489 -0.003068 -15.901280 -28.417403 0.000000 0.000001 -0.000000 -0.066772 -2.755351 47.466990 4.556375 -4.656072 88.758534 1.830295 -3.702585 52.597087 -0.000001 -0.000002 0.000002 -0.600080 -3.332471 41.755757 5.173914 -4.628473 96.377398 1.829444 -3.701931 52.583813 -0.000000 0.000001 0.000001 0.318244 -4.364155 41.826210 6.459877 -4.294830 112.795445 2.606792 -4.182420 63.854339 -0.000000 0.000001 -0.000002 -3.482272 -8.235592 47.071413 4.327229 -4.645498 85.932830 6.685377 -4.193188 115.842221 -0.000001 -0.000000 0.000000 -34.250404 4.505797 20.818948 57.718657 -6.380410 3.529467 -19.354393 -6.138840 -17.771447 -2.431447 -0.000015 0.000001 0.000000 0.000001 -0.000000 -21.158039 -7.371366 -34.689759 58.279101 -2.257679 -4.514865 -26.245690 -9.946782 25.288852 -0.265322 -0.000022 0.000015 0.000000 -0.000000 -0.000000 
2.811125 72.337143 -2.497752 -5.399211 -48.375628 -0.110902 11.000191 5.824949 0.229865 1.870395 0.757184 -1.340126 1.876948 0.720578 -1.315422 1.113791 13.787884 3.781982 9.139646 23.151903 -8.011491 -0.000000 0.000000 0.000000 1.466636 1.728534 -7.459585 -50.312068 5.312384 -52.353376 0.000040 -108.929469 0.000056 -0.702178 -8.361518 -15.367072 -6.179984 -10.623334 -4.674396 10.618596 41.233797 0.829203 0.573245 12.340210 26.175298 -0.000001 -0.000000 -0.000000 0.247475 3.930018 -50.157170 5.688507 5.848814 -88.405228 2.154503 4.538608 -50.769913 0.000001 0.000000 0.000000 -0.230475 4.427114 -44.090309 6.360175 5.828948 -95.000316 2.223279 4.593725 -51.633754 -0.000000 0.000000 -0.000003 0.733354 5.441759 -44.658068 7.981714 5.450588 -111.388999 3.148828 5.191612 -62.453556 0.000001 -0.000000 0.000000 -2.516470 9.511148 -49.961294 5.412789 5.834690 -85.696628 7.939310 5.466938 -110.943220 0.000001 0.000001 0.000001 2.989546 13.628335 -5.520396 -47.844994 28.017890 82.570130 0.000173 106.819063 -0.000193 -7.921316 17.278143 6.809379 -6.632481 13.054098 6.616677 10.663180 -43.654386 -2.939634 0.058752 -16.660575 -28.116537 0.000003 0.000002 -0.000001 -0.025060 -2.954134 48.743109 4.586571 -4.656629 89.130390 1.889248 -3.746830 53.504444 -0.000001 0.000001 0.000002 -0.501535 -3.543301 43.230812 5.195581 -4.626010 96.645940 1.878772 -3.739080 53.343975 -0.000001 -0.000001 -0.000002 0.414440 -4.519492 43.289568 6.432884 -4.306046 112.435562 2.637979 -4.197545 64.281239 0.000000 0.000000 -0.000002 -3.093564 -8.328628 48.391327 4.367456 -4.648180 86.429460 6.546625 -4.257426 113.959097 -0.000001 -0.000000 0.000000 -35.193335 4.144932 20.800308 58.662876 -6.325658 3.768286 -17.439298 -5.781042 -18.600036 -3.973036 0.000017 0.000181 0.000000 -0.000000 0.000000 -21.907072 -6.603040 -34.981562 58.787834 -2.001208 -4.352761 -26.021919 -9.826737 25.127329 -0.388073 -0.000000 -0.000006 0.000000 0.000001 -0.000000 
